<mxfile host="app.diagrams.net" modified="2020-11-17T02:18:56.238Z" agent="5.0 (Windows NT 10.0; WOW64) AppleWebKit/537.36 (KHTML, like Gecko) Chrome/75.0.3770.100 Safari/537.36" etag="Xt4YFBZ_GWoWcgDll03h" version="13.9.9" type="github">
  <diagram id="prtHgNgQTEPvFCAcTncT" name="Page-1">
    <mxGraphModel dx="1038" dy="496" grid="1" gridSize="10" guides="1" tooltips="1" connect="1" arrows="1" fold="1" page="1" pageScale="1" pageWidth="827" pageHeight="1169" math="0" shadow="0">
      <root>
        <mxCell id="0" />
        <mxCell id="1" parent="0" />
        <mxCell id="4SyvB27mXGl6EP4Iyima-1" value="" style="shape=flexArrow;endArrow=classic;html=1;fillColor=#e1d5e7;strokeColor=#9673a6;" edge="1" parent="1">
          <mxGeometry width="50" height="50" relative="1" as="geometry">
            <mxPoint x="20" y="240" as="sourcePoint" />
            <mxPoint x="240" y="240" as="targetPoint" />
          </mxGeometry>
        </mxCell>
        <mxCell id="4SyvB27mXGl6EP4Iyima-5" value="&lt;span style=&quot;background-color: rgb(255 , 255 , 255)&quot;&gt;request请求&lt;/span&gt;" style="text;html=1;strokeColor=#9673a6;fillColor=#e1d5e7;align=center;verticalAlign=middle;whiteSpace=wrap;rounded=0;labelBackgroundColor=#FF99FF;opacity=90;" vertex="1" parent="1">
          <mxGeometry x="70" y="210" width="70" height="20" as="geometry" />
        </mxCell>
        <mxCell id="4SyvB27mXGl6EP4Iyima-6" value="" style="rounded=1;whiteSpace=wrap;html=1;labelBackgroundColor=#FF99FF;opacity=90;fillColor=#fff2cc;strokeColor=#d6b656;" vertex="1" parent="1">
          <mxGeometry x="430" y="130" width="230" height="270" as="geometry" />
        </mxCell>
        <mxCell id="4SyvB27mXGl6EP4Iyima-7" value="springboot应用" style="text;html=1;strokeColor=none;fillColor=none;align=center;verticalAlign=middle;whiteSpace=wrap;rounded=0;labelBackgroundColor=#FF99FF;opacity=90;" vertex="1" parent="1">
          <mxGeometry x="470" y="140" width="140" height="20" as="geometry" />
        </mxCell>
        <mxCell id="4SyvB27mXGl6EP4Iyima-8" value="index" style="text;html=1;strokeColor=#b85450;fillColor=#f8cecc;align=center;verticalAlign=middle;whiteSpace=wrap;rounded=0;labelBackgroundColor=#FF99FF;opacity=90;" vertex="1" parent="1">
          <mxGeometry x="475" y="250" width="130" height="20" as="geometry" />
        </mxCell>
        <mxCell id="4SyvB27mXGl6EP4Iyima-9" value="login" style="text;html=1;strokeColor=#b85450;fillColor=#f8cecc;align=center;verticalAlign=middle;whiteSpace=wrap;rounded=0;labelBackgroundColor=#FF99FF;opacity=90;" vertex="1" parent="1">
          <mxGeometry x="475" y="290" width="125" height="20" as="geometry" />
        </mxCell>
        <mxCell id="4SyvB27mXGl6EP4Iyima-10" value="" style="endArrow=classic;html=1;" edge="1" parent="1" source="4SyvB27mXGl6EP4Iyima-8" target="4SyvB27mXGl6EP4Iyima-11">
          <mxGeometry width="50" height="50" relative="1" as="geometry">
            <mxPoint x="740" y="260" as="sourcePoint" />
            <mxPoint x="700" y="260" as="targetPoint" />
          </mxGeometry>
        </mxCell>
        <mxCell id="4SyvB27mXGl6EP4Iyima-11" value="受限资源" style="text;html=1;strokeColor=#b85450;fillColor=#f8cecc;align=center;verticalAlign=middle;whiteSpace=wrap;rounded=0;" vertex="1" parent="1">
          <mxGeometry x="680" y="250" width="130" height="30" as="geometry" />
        </mxCell>
        <mxCell id="4SyvB27mXGl6EP4Iyima-12" value="公共资源" style="text;html=1;strokeColor=#b85450;fillColor=#f8cecc;align=center;verticalAlign=middle;whiteSpace=wrap;rounded=0;" vertex="1" parent="1">
          <mxGeometry x="680" y="290" width="130" height="30" as="geometry" />
        </mxCell>
        <mxCell id="4SyvB27mXGl6EP4Iyima-14" value="" style="endArrow=classic;html=1;" edge="1" parent="1">
          <mxGeometry width="50" height="50" relative="1" as="geometry">
            <mxPoint x="600" y="299.04761904761904" as="sourcePoint" />
            <mxPoint x="680" y="300.95238095238096" as="targetPoint" />
          </mxGeometry>
        </mxCell>
      </root>
    </mxGraphModel>
  </diagram>
</mxfile>
